<svg width="512" height="512" viewBox="0 0 512 512" fill="none" xmlns="http://www.w3.org/2000/svg">
  <!-- Background circle -->
  <circle cx="256" cy="256" r="256" fill="#22c55e"/>
  
  <!-- Bug body -->
  <ellipse cx="256" cy="280" rx="120" ry="75" fill="#f97316"/>
  
  <!-- Bug spots -->
  <circle cx="220" cy="250" r="12" fill="#ea580c"/>
  <circle cx="292" cy="250" r="12" fill="#ea580c"/>
  <circle cx="220" cy="310" r="12" fill="#ea580c"/>
  <circle cx="292" cy="310" r="12" fill="#ea580c"/>
  
  <!-- Bug head -->
  <circle cx="256" cy="200" r="50" fill="#f97316"/>
  
  <!-- Eyes -->
  <circle cx="240" cy="190" r="10" fill="white"/>
  <circle cx="272" cy="190" r="10" fill="white"/>
  <circle cx="240" cy="190" r="5" fill="black"/>
  <circle cx="272" cy="190" r="5" fill="black"/>
  
  <!-- Antennae -->
  <path d="M 230 170 Q 220 150 210 170" stroke="#ea580c" stroke-width="6" fill="none"/>
  <path d="M 282 170 Q 292 150 302 170" stroke="#ea580c" stroke-width="6" fill="none"/>
  
  <!-- Wings -->
  <ellipse cx="200" cy="260" rx="45" ry="60" fill="#3b82f6" opacity="0.7"/>
  <ellipse cx="312" cy="260" rx="45" ry="60" fill="#3b82f6" opacity="0.7"/>
  
  <!-- Text placeholder -->
  <text x="256" y="400" text-anchor="middle" fill="white" font-family="Arial, sans-serif" font-size="32" font-weight="bold">BUGGIES</text>
  <text x="256" y="430" text-anchor="middle" fill="white" font-family="Arial, sans-serif" font-size="24" font-weight="bold">with BRANDON</text>
</svg>